<svg width="272" height="272" viewBox="0 0 272 272" fill="none" xmlns="http://www.w3.org/2000/svg">
<rect width="272" height="272" fill="#F47971"/>
<line x1="116.74" y1="130.368" x2="224" y2="130.368" stroke="#3D3D3D" stroke-width="5"/>
<line x1="202.863" y1="129.078" x2="198.201" y2="88.2817" stroke="#3D3D3D" stroke-width="5"/>
<line x1="85.1196" y1="244.323" x2="85.1196" y2="181.114" stroke="#3D3D3D" stroke-width="5"/>
<line x1="67.6714" y1="241.823" x2="102.905" y2="245.32" stroke="#3D3D3D" stroke-width="5"/>
<rect x="183.847" y="115.255" width="66.0229" height="8.98741" transform="rotate(-77.6063 183.847 115.255)" fill="white" fill-opacity="0.7" stroke="#3D3D3D" stroke-width="5"/>
<rect x="55.0732" y="174.473" width="60.1948" height="8.98741" fill="white" fill-opacity="0.7" stroke="#3D3D3D" stroke-width="5"/>
<path d="M126.68 236.264L109.837 229.527L133.417 158.785H72.7816C68.2901 120.607 77.2731 92.5354 99.7306 74.5693L133.417 120.046H173.841" stroke="#3D3D3D" stroke-width="5" stroke-linecap="square" stroke-linejoin="round"/>
<path d="M121.626 67.8324C129.998 67.8324 136.785 61.0455 136.785 52.6735C136.785 44.3015 129.998 37.5146 121.626 37.5146C113.254 37.5146 106.468 44.3015 106.468 52.6735C106.468 61.0455 113.254 67.8324 121.626 67.8324Z" fill="white" fill-opacity="0.7" stroke="#3D3D3D" stroke-width="5" stroke-linecap="round" stroke-linejoin="round"/>
</svg>
